<svg fill="#000000" height="800px" width="800px" version="1.1" id="Capa_1" viewBox="0 0 24 24" xmlns="http://www.w3.org/2000/svg">
  <path id="XMLID_148_" d="M 12 0 C 5.373 0 0 5.373 0 12 C 0 18.627 5.373 24 12 24 C 18.627 24 24 18.627 24 12 C 23.999 5.373 18.627 0 12 0 Z M 11 15.639 C 11 16.136 10.597 16.539 10.099 16.539 C 9.602 16.539 9.199 16.136 9.199 15.639 L 9.199 8.837 C 9.199 8.339 9.602 7.937 10.099 7.937 C 10.597 7.937 11 8.339 11 8.837 L 11 15.639 Z M 14.8 15.639 C 14.8 16.136 14.398 16.539 13.9 16.539 C 13.403 16.539 13 16.136 13 15.639 L 13 8.837 C 13 8.339 13.403 7.937 13.9 7.937 C 14.398 7.937 14.8 8.339 14.8 8.837 L 14.8 15.639 Z" style="fill: rgb(242, 132, 0);"/>
</svg>