<?xml version="1.0" encoding="UTF-8"?>
<svg width="16px" height="16px" viewBox="0 0 16 16" version="1.1" xmlns="http://www.w3.org/2000/svg" xmlns:xlink="http://www.w3.org/1999/xlink">
    <!-- Generator: Sketch 52.6 (67491) - http://www.bohemiancoding.com/sketch -->
    <title>loader</title>
    <desc>Created with Sketch.</desc>
    <g id="loader" stroke="none" stroke-width="1" fill="none" fill-rule="evenodd">
        <rect id="boundary" x="0" y="0" width="16" height="16"></rect>
        <path d="M8,0 C8.27083469,0 8.49999906,0.0937490625 8.6875,0.28125 C8.87500094,0.468750938 8.96875,0.697915312 8.96875,0.96875 L8.96875,3.34375 C8.96875,3.61458469 8.87500094,3.84374906 8.6875,4.03125 C8.49999906,4.21875094 8.27083469,4.3125 8,4.3125 C7.72916531,4.3125 7.50000094,4.21875094 7.3125,4.03125 C7.12499906,3.84374906 7.03125,3.61458469 7.03125,3.34375 L7.03125,0.96875 C7.03125,0.697915312 7.12499906,0.468750938 7.3125,0.28125 C7.50000094,0.0937490625 7.72916531,0 8,0 Z M8,11.6875 C8.27083469,11.6875 8.49999906,11.7812491 8.6875,11.96875 C8.87500094,12.1562509 8.96875,12.3854153 8.96875,12.65625 L8.96875,15.03125 C8.96875,15.3020847 8.87500094,15.5312491 8.6875,15.71875 C8.49999906,15.9062509 8.27083469,16 8,16 C7.72916531,16 7.50000094,15.9062509 7.3125,15.71875 C7.12499906,15.5312491 7.03125,15.3020847 7.03125,15.03125 L7.03125,12.65625 C7.03125,12.3854153 7.12499906,12.1562509 7.3125,11.96875 C7.50000094,11.7812491 7.72916531,11.6875 8,11.6875 Z M11.296875,5.6875 C11.0260403,5.6875 10.7942718,5.5911468 10.6015625,5.3984375 C10.4088532,5.2057282 10.3125,4.97395969 10.3125,4.703125 C10.3125,4.57812437 10.3385414,4.45572977 10.390625,4.3359375 C10.4427086,4.21614523 10.5156245,4.10937547 10.609375,4.015625 L12.28125,2.34375 C12.3645837,2.24999953 12.4687494,2.17708359 12.59375,2.125 C12.7187506,2.07291641 12.8489577,2.046875 12.984375,2.046875 C13.2552097,2.046875 13.4843741,2.14062406 13.671875,2.328125 C13.8593759,2.51562594 13.953125,2.74479031 13.953125,3.015625 C13.953125,3.15104234 13.9270836,3.28124938 13.875,3.40625 C13.8229164,3.53125062 13.7500005,3.63541625 13.65625,3.71875 L11.984375,5.390625 C11.8906245,5.48437547 11.7864589,5.55729141 11.671875,5.609375 C11.5572911,5.66145859 11.4322923,5.6875 11.296875,5.6875 Z M4.703125,10.3125 C4.97395969,10.3125 5.2057282,10.4088532 5.3984375,10.6015625 C5.5911468,10.7942718 5.6875,11.0260403 5.6875,11.296875 C5.6875,11.4218756 5.66145859,11.5442702 5.609375,11.6640625 C5.55729141,11.7838548 5.48437547,11.8906245 5.390625,11.984375 L3.71875,13.65625 C3.63541625,13.7500005 3.53125062,13.8229164 3.40625,13.875 C3.28124938,13.9270836 3.15104234,13.953125 3.015625,13.953125 C2.74479031,13.953125 2.51562594,13.8593759 2.328125,13.671875 C2.14062406,13.4843741 2.046875,13.2552097 2.046875,12.984375 C2.046875,12.8489577 2.07291641,12.7187506 2.125,12.59375 C2.17708359,12.4687494 2.24999953,12.3645837 2.34375,12.28125 L4.015625,10.609375 C4.10937547,10.5156245 4.21354109,10.4427086 4.328125,10.390625 C4.44270891,10.3385414 4.56770766,10.3125 4.703125,10.3125 Z M15.03125,7.03125 C15.3020847,7.03125 15.5312491,7.12499906 15.71875,7.3125 C15.9062509,7.50000094 16,7.72916531 16,8 C16,8.27083469 15.9062509,8.49999906 15.71875,8.6875 C15.5312491,8.87500094 15.3020847,8.96875 15.03125,8.96875 L12.65625,8.96875 C12.3854153,8.96875 12.1562509,8.87500094 11.96875,8.6875 C11.7812491,8.49999906 11.6875,8.27083469 11.6875,8 C11.6875,7.72916531 11.7812491,7.50000094 11.96875,7.3125 C12.1562509,7.12499906 12.3854153,7.03125 12.65625,7.03125 L15.03125,7.03125 Z M4.3125,8 C4.3125,8.27083469 4.21875094,8.49999906 4.03125,8.6875 C3.84374906,8.87500094 3.61458469,8.96875 3.34375,8.96875 L0.96875,8.96875 C0.697915312,8.96875 0.468750938,8.87500094 0.28125,8.6875 C0.0937490625,8.49999906 0,8.27083469 0,8 C0,7.72916531 0.0937490625,7.50000094 0.28125,7.3125 C0.468750938,7.12499906 0.697915312,7.03125 0.96875,7.03125 L3.34375,7.03125 C3.61458469,7.03125 3.84374906,7.12499906 4.03125,7.3125 C4.21875094,7.50000094 4.3125,7.72916531 4.3125,8 Z M11.984375,10.609375 L13.65625,12.28125 C13.7500005,12.3645837 13.8229164,12.4687494 13.875,12.59375 C13.9270836,12.7187506 13.953125,12.8489577 13.953125,12.984375 C13.953125,13.2552097 13.8593759,13.4843741 13.671875,13.671875 C13.4843741,13.8593759 13.2552097,13.953125 12.984375,13.953125 C12.8489577,13.953125 12.7187506,13.9270836 12.59375,13.875 C12.4687494,13.8229164 12.3645837,13.7500005 12.28125,13.65625 L10.609375,11.984375 C10.5156245,11.8906245 10.4401045,11.7838548 10.3828125,11.6640625 C10.3255205,11.5442702 10.296875,11.4114591 10.296875,11.265625 C10.296875,11.005207 10.3932282,10.7786468 10.5859375,10.5859375 C10.7786468,10.3932282 11.005207,10.296875 11.265625,10.296875 C11.4114591,10.296875 11.5442702,10.3255205 11.6640625,10.3828125 C11.7838548,10.4401045 11.8906245,10.5156245 11.984375,10.609375 Z M3.71875,2.34375 L5.390625,4.015625 C5.48437547,4.10937547 5.55989555,4.21614523 5.6171875,4.3359375 C5.67447945,4.45572977 5.703125,4.58854094 5.703125,4.734375 C5.703125,4.99479297 5.6067718,5.2213532 5.4140625,5.4140625 C5.2213532,5.6067718 4.99479297,5.703125 4.734375,5.703125 C4.58854094,5.703125 4.45572977,5.67447945 4.3359375,5.6171875 C4.21614523,5.55989555 4.10937547,5.48437547 4.015625,5.390625 L2.34375,3.71875 C2.26041625,3.63541625 2.19531273,3.53645891 2.1484375,3.421875 C2.10156227,3.30729109 2.078125,3.18229234 2.078125,3.046875 C2.078125,2.77604031 2.17187406,2.54687594 2.359375,2.359375 C2.54687594,2.17187406 2.77604031,2.078125 3.046875,2.078125 C3.18229234,2.078125 3.30729109,2.10156227 3.421875,2.1484375 C3.53645891,2.19531273 3.63541625,2.26041625 3.71875,2.34375 Z" id="icon" fill="#666666"></path>
    </g>
</svg>